HIERARCHY
ROOT Hips
{
  OFFSET 13.6774 106.653 -34.4427
  CHANNELS 6 Xposition Yposition Zposition Zrotation Xrotation Yrotation
  JOINT ToSpine
  {
    OFFSET -2.69724 7.43032 -0.144315
    CHANNELS 3 Zrotation Xrotation Yrotation
    JOINT Spine
    {
      OFFSET -0.0310711 10.7595 1.96963
      CHANNELS 3 Zrotation Xrotation Yrotation
      JOINT Spine1
      {
        OFFSET 19.9056 3.91189 0.764692
        CHANNELS 3 Zrotation Xrotation Yrotation
        JOINT Neck
        {
          OFFSET 25.9749 7.03908 -0.130764
          CHANNELS 3 Zrotation Xrotation Yrotation
          JOINT Head
          {
            OFFSET 9.52751 0.295786 -0.907742
            CHANNELS 3 Zrotation Xrotation Yrotation
            End Site
            {
              OFFSET 16.4037 0.713936 2.7358
            }
          }
        }
        JOINT LeftShoulder
        {
          OFFSET 17.7449 4.33886 11.7777
          CHANNELS 3 Zrotation Xrotation Yrotation
          JOINT LeftArm
          {
            OFFSET 0.911315 1.27913 9.80584
            CHANNELS 3 Zrotation Xrotation Yrotation
            JOINT LeftForeArm
            {
              OFFSET 28.6126 1.18197 -3.53199
              CHANNELS 3 Zrotation Xrotation Yrotation
              JOINT LeftHand
              {
                OFFSET 27.5088 0.0218783 0.327423
                CHANNELS 3 Zrotation Xrotation Yrotation
                End Site
                {
                  OFFSET 18.6038 -0.000155887 0.382096
                }
              }
            }
          }
        }
        JOINT RightShoulder
        {
          OFFSET 17.1009 2.89543 -12.2328
          CHANNELS 3 Zrotation Xrotation Yrotation
          JOINT RightArm
          {
            OFFSET 1.4228 0.178766 -10.211
            CHANNELS 3 Zrotation Xrotation Yrotation
            JOINT RightForeArm
            {
              OFFSET 28.733 1.87905 2.64907
              CHANNELS 3 Zrotation Xrotation Yrotation
              JOINT RightHand
              {
                OFFSET 27.4588 0.290562 -0.101845
                CHANNELS 3 Zrotation Xrotation Yrotation
                End Site
                {
                  OFFSET 17.8396 -0.255518 -0.000602873
                }
              }
            }
          }
        }
      }
    }
  }
  JOINT LeftUpLeg
  {
    OFFSET -5.61296 -2.22332 -10.2353
    CHANNELS 3 Zrotation Xrotation Yrotation
    JOINT LeftLeg
    {
      OFFSET 2.56703 -44.7417 -7.93097
      CHANNELS 3 Zrotation Xrotation Yrotation
      JOINT LeftFoot
      {
        OFFSET 3.16933 -46.5642 -3.96578
        CHANNELS 3 Zrotation Xrotation Yrotation
        JOINT LeftToeBase
        {
          OFFSET 0.346054 -6.02161 12.8035
          CHANNELS 3 Zrotation Xrotation Yrotation
          End Site
          {
            OFFSET 0.134235 -1.35082 5.13018
          }
        }
      }
    }
  }
  JOINT RightUpLeg
  {
    OFFSET -5.7928 -1.72406 10.6446
    CHANNELS 3 Zrotation Xrotation Yrotation
    JOINT RightLeg
    {
      OFFSET -2.57161 -44.7178 -7.85259
      CHANNELS 3 Zrotation Xrotation Yrotation
      JOINT RightFoot
      {
        OFFSET -3.10148 -46.5936 -4.03391
        CHANNELS 3 Zrotation Xrotation Yrotation
        JOINT RightToeBase
        {
          OFFSET -0.0828122 -6.13587 12.8035
          CHANNELS 3 Zrotation Xrotation Yrotation
          End Site
          {
            OFFSET -0.131328 -1.35082 5.13018
          }
        }
      }
    }
  }
}
MOTION
Frames: 8
Frame Time: 0.03333333333333333
0.0000 93.1000 0.0000 63.6555 -59.0557 -23.5352 -70.9158 0.0101 87.9719 66.6008 66.3760 12.1185 8.8027 13.6283 6.4619 -119.8233 26.4370 163.6771 -163.5603 69.0236 -171.0543 -1.4347 -18.9810 -27.8822 -84.3795 36.8533 -133.9393 22.2920 -1.4977 -91.0991 -0.0260 0.0938 -0.1212 -1.9349 5.2609 42.1428 -102.9211 -15.0020 96.1339 12.5890 1.2137 97.2287 -0.2753 0.1625 -0.2194 -59.0908 9.8651 104.2968 -3.1766 44.8534 -5.3616 -0.3088 -20.8275 -2.2774 5.1444 -14.0667 9.8373 -36.9388 -8.1545 94.4208 1.5761 38.0120 9.9972 0.4472 3.0222 -0.6783 1.1104 -14.2402 -0.8268 
0.0000 93.1000 0.0000 65.9451 -54.0816 -22.1569 -70.9357 -0.0309 88.0008 67.9781 66.9485 13.1207 8.1175 14.5205 6.3951 -119.9185 26.5977 164.0859 -162.5741 69.2611 -170.8441 -1.1557 -18.6870 -26.9404 -82.7493 35.9433 -134.7641 22.1334 -1.5600 -91.6981 0.1319 -0.1194 -0.0547 -1.8853 5.6065 41.2636 -109.2276 -13.6968 95.6675 13.2565 1.3131 96.5700 0.0688 -0.0431 -0.1452 -59.0304 8.8312 101.5651 -2.6738 41.9865 -7.7015 -0.3389 -18.1950 -1.9164 5.5881 -14.4590 10.7762 -38.7750 -10.9411 91.9685 2.0572 36.8215 9.1635 1.4904 3.1486 -0.9750 0.9739 -14.0137 -0.0256 
0.0000 93.1000 0.0000 67.9125 -49.9534 -19.2283 -70.9461 -0.0349 88.0117 67.1383 67.2762 14.8884 7.9681 15.6741 5.9765 -120.1950 26.8677 162.0179 -164.1245 69.7303 -168.0406 -0.9401 -17.8473 -26.2406 -81.5513 34.6724 -134.7403 21.6088 -2.1696 -92.8952 0.1801 -0.1313 0.0438 -1.7877 5.5641 39.6052 -115.0030 -12.6830 96.2987 14.2092 1.3933 94.7942 0.3002 -0.0453 -0.1001 -58.6822 8.7869 100.0002 -2.9036 40.2974 -7.2665 -0.8655 -17.3341 -1.7966 4.0490 -11.5062 6.5951 -40.0127 -13.1368 88.2246 2.3030 35.4506 7.9404 1.3481 2.7163 -0.9549 1.1112 -13.8953 0.7923 
0.0000 93.1000 0.0000 69.0884 -46.0606 -17.0310 -70.9571 -0.0371 88.0206 67.3307 67.8645 15.7694 7.4202 16.5187 5.9188 -121.0260 27.2226 161.0214 -166.4013 69.9262 -168.2559 -0.8807 -17.8170 -25.8377 -81.0376 34.7965 -135.8176 21.2980 -2.0936 -93.1415 0.2065 -0.1162 0.1231 -1.7695 5.8917 37.3362 -119.2808 -11.9664 97.2502 15.5225 1.1845 93.6133 0.0930 -0.0357 -0.0109 -58.0175 9.1076 98.6990 -2.8184 39.2498 -9.4844 -1.1385 -15.4388 -1.7356 4.6233 -12.5950 7.3194 -41.4443 -14.2448 86.0543 0.7815 35.1040 7.1346 0.5487 1.9713 -0.8904 0.9188 -12.7709 0.8031 
0.0000 93.1000 0.0000 70.2157 -42.7486 -13.7833 -70.9702 -0.1314 88.0446 68.3758 67.8837 16.1185 7.2853 17.2178 5.3600 -120.9262 27.1538 161.8137 -166.2834 69.8680 -169.4447 -0.2933 -17.5343 -25.2503 -79.9395 34.9544 -136.0952 22.0772 -2.2406 -93.9398 0.0143 -0.5992 0.4599 -1.7682 5.8858 36.0135 -123.5656 -11.6931 98.1639 17.6707 0.1738 91.8599 0.5378 -0.5810 0.3559 -56.8770 10.3568 98.4348 -2.9198 38.0511 -11.2548 -1.1236 -12.9888 -1.1456 4.6869 -13.2771 7.1019 -42.5531 -14.9845 83.0759 1.2486 34.4396 6.8375 -0.3364 1.6987 -1.2302 1.3077 -13.0789 0.3840 
0.0000 93.1000 0.0000 71.0523 -39.1314 -12.1514 -70.9730 0.0020 88.0274 69.5892 67.6889 15.4545 6.7241 17.1281 5.2994 -119.5903 27.1127 161.1104 -165.8433 69.9701 -168.2147 -1.1039 -17.8812 -25.3787 -79.3176 35.6451 -136.4163 22.3469 -2.6835 -94.1875 -0.1647 0.1008 -0.0578 -1.8776 6.0833 35.1057 -127.0757 -11.2479 97.8852 19.4357 0.2125 90.8755 0.0108 0.2054 -0.0826 -55.2136 11.9044 97.8366 -3.9715 38.2263 -12.5546 -1.2477 -11.7416 -1.6335 4.9796 -13.4199 6.8308 -44.2382 -14.9525 80.7250 1.5271 34.0348 6.4900 -0.4372 0.9419 -0.7796 0.9400 -14.2402 0.8004 
0.0000 93.1000 0.0000 71.4351 -35.5725 -12.0840 -70.9812 0.0272 88.0258 71.3728 67.6923 14.5169 6.9695 16.9854 5.9364 -119.3773 26.8346 159.7785 -166.3459 70.1295 -165.6817 -1.2990 -17.9747 -25.0715 -77.3013 37.3360 -137.0401 22.9637 -3.1592 -93.9970 -0.0592 0.2637 -0.2594 -1.8795 6.1214 34.0102 -130.0325 -10.1641 99.0731 21.4544 -0.6881 88.7283 -0.0986 0.3746 -0.0226 -54.0755 13.3192 97.6551 -3.8904 39.1892 -14.1631 -1.4661 -10.8385 -1.6763 4.8590 -12.6513 7.3513 -45.5706 -15.7005 77.9590 1.8322 34.5206 4.1805 0.6091 1.0569 -0.9025 1.0631 -14.0392 0.5503 
0.0000 93.1000 0.0000 72.1810 -33.7285 -9.0787 -70.9915 0.0520 88.0239 71.2661 67.4692 14.5517 7.1914 16.7534 5.3760 -118.3867 27.0904 158.5039 -166.1143 70.6561 -165.2009 -1.4653 -18.3805 -24.8889 -76.7880 37.7534 -138.6447 22.7196 -2.4769 -94.0018 0.0507 0.3808 -0.3759 -1.9465 5.8011 34.0333 -133.1514 -8.8047 100.3554 23.0518 -0.7287 87.7504 -0.1301 0.4754 -0.2779 -51.7837 13.8012 97.3305 -3.9439 40.3491 -14.0405 -1.7952 -10.8316 -1.6883 4.0347 -11.6307 6.7156 -46.4709 -16.1372 75.3206 1.9499 34.0654 4.4612 0.8235 0.9729 -0.8808 1.0069 -14.1383 0.7056 
